<svg width="588" height="99" viewBox="0 0 588 99" fill="none" xmlns="http://www.w3.org/2000/svg">
<g clip-path="url(#clip0_121_4235)">
<path d="M337.78 31.52L360.06 29.85L332.58 27.8L374.63 24.65L337.19 21.85L389.06 17.97L300.72 11.37L324.46 9.59003L281.12 6.35003L242.62 9.23003L225.3 6.98003L267.79 3.80003L233.74 1.25003L210.01 3.03003L182.46 0.970032L156.71 2.90003L182.87 4.85003L154.04 7.01003L125.22 4.85003L141.93 3.60003L121.97 2.11003L58.15 6.88003L80.77 8.57003L9.05 13.93L51.29 17.09L29 18.76L56.48 20.81L14.43 23.95L51.88 26.75L0 30.63L71.29 35.97L38.65 38.41L73.11 40.98L82.02 40.32L107.94 42.26L146.44 39.38L163.74 41.63L118.87 44.98L180.47 49.59L193.94 48.58L169.69 46.77L204.32 44.18L228.58 45.99L244.47 44.8L267.09 46.49L330.91 41.73L308.3 40.03L380.01 34.67L337.78 31.52Z" fill="#282828"/>
<path d="M223.49 48.51L246.74 50.25L270 48.51L246.74 46.77L223.49 48.51Z" fill="#282828"/>
<path d="M84.29 41.9901L107.54 43.73L84.29 45.4701L61.03 43.73L84.29 41.9901Z" fill="#282828"/>
<path d="M388.92 83.7401L407.02 82.3901L384.7 80.7201L418.86 78.1701L388.44 75.8901L430.58 72.7401L358.82 67.3801L378.1 65.9401L342.9 63.3001L311.62 65.6401L297.56 63.8101L332.07 61.2301L304.41 59.1601L285.13 60.6001L262.76 58.9301L241.84 60.4901L263.09 62.0901L239.68 63.8401L216.26 62.0901L229.83 61.0701L213.62 59.8601L161.78 63.7301L180.15 65.1101L121.9 69.4601L156.2 72.0301L138.1 73.3801L160.42 75.0501L126.27 77.6001L156.68 79.8801L114.54 83.0301L172.46 87.3601L145.94 89.34L173.93 91.4301L181.17 90.8901L202.22 92.4701L233.5 90.1301L247.55 91.9601L211.1 94.6801L261.14 98.4201L272.08 97.6101L252.38 96.1301L280.51 94.0301L300.22 95.5001L313.13 94.5401L331.5 95.9101L383.34 92.0401L364.98 90.6601L423.23 86.3101L388.92 83.7401Z" fill="#282828"/>
<path d="M296.08 97.55L314.97 98.96L333.86 97.55L314.97 96.13L296.08 97.55Z" fill="#282828"/>
<path d="M183.01 92.25L201.9 93.66L183.01 95.08L164.12 93.66L183.01 92.25Z" fill="#282828"/>
<path d="M553.09 37.74L568.02 36.62L549.61 35.25L577.78 33.14L552.69 31.27L587.44 28.67L528.26 24.24L544.16 23.05L515.13 20.88L489.33 22.81L477.73 21.3L506.2 19.17L483.38 17.47L467.49 18.66L449.03 17.27L431.78 18.57L449.31 19.88L430 21.32L410.69 19.88L421.88 19.04L408.51 18.04L365.75 21.24L380.9 22.37L332.86 25.96L361.15 28.08L346.22 29.19L364.63 30.57L336.46 32.67L361.55 34.55L326.79 37.15L374.56 40.72L352.69 42.36L375.77 44.08L381.74 43.64L399.11 44.94L424.9 43.01L436.49 44.51L406.43 46.76L447.7 49.85L456.72 49.17L440.48 47.96L463.67 46.22L479.93 47.44L490.57 46.64L505.73 47.78L548.49 44.58L533.34 43.45L581.38 39.86L553.09 37.74Z" fill="#282828"/>
<path d="M476.52 49.12L492.1 50.29L507.68 49.12L492.1 47.96L476.52 49.12Z" fill="#282828"/>
<path d="M383.26 44.76L398.84 45.92L383.26 47.09L367.68 45.92L383.26 44.76Z" fill="#282828"/>
<path d="M78.4999 5.00002C78.2779 7.1133 78.3519 9.24723 78.7199 11.34C77.3377 10.3447 75.9059 9.4202 74.4299 8.57002C73.0943 7.6297 72.0094 6.37651 71.2699 4.92002C70.7899 4.07002 70.5099 3.44002 70.5099 3.44002C69.6262 4.40604 69.0497 5.6131 68.8538 6.90766C68.6579 8.20222 68.8515 9.52579 69.4099 10.71C66.8178 10.0301 64.0863 10.096 61.5299 10.9C70.7099 16.9 65.8299 17.4 60.5299 19.9C55.2299 22.4 54.8499 25.53 54.8499 25.53C61.1799 23.45 63.6999 26.11 63.6999 26.11C60.2899 29.37 63.3299 34.46 63.3299 34.46C66.6399 40.8 74.8399 43.46 82.1799 44.61C86.7137 45.2807 91.3024 45.5051 95.8799 45.28L79.1599 50.48L64.1599 54.27C64.1599 54.27 49.2299 52.65 43.7499 40C38.2699 27.35 47.8399 17.43 46.8799 16.78C45.9199 16.13 44.8099 17.54 44.6899 17.69C48.8499 5.78002 61.3799 5.91002 61.8799 4.69002C62.3799 3.47002 59.4099 3.34002 59.4099 3.34002C72.0799 -0.839976 78.4999 5.00002 78.4999 5.00002Z" fill="#BE161D"/>
<path d="M21.85 45.73V83.23L57.35 78.59V41.09L21.85 45.73Z" fill="#353535"/>
<path d="M21.85 45.73V83.23L57.35 78.59V41.09L21.85 45.73Z" stroke="#1F1F1F" stroke-width="1.38" stroke-miterlimit="10"/>
<path d="M22.63 80.45L57.35 75.52M22.63 48.24L57.35 43.82L22.63 48.24Z" stroke="#1F1F1F" stroke-width="0.75" stroke-miterlimit="10"/>
<path d="M57.35 41.09L33.13 37.51V75.01L57.35 78.59V41.09Z" fill="#353535"/>
<path d="M57.35 41.09L33.13 37.51V75.01L57.35 78.59V41.09Z" stroke="#1F1F1F" stroke-width="1.38" stroke-miterlimit="10"/>
<path d="M251.67 38.1082V74.5823C220.933 80.0945 181.855 77.3029 142.691 74.5013L142.634 74.4973C103.606 71.7055 64.4958 68.9078 33.67 74.4019V37.9278C64.4072 32.4156 103.485 35.2072 142.649 38.0088L142.706 38.0128C181.734 40.8046 220.844 43.6023 251.67 38.1082Z" fill="#353535" stroke="#1F1F1F"/>
<path d="M252.17 75C190.42 86.25 94.88 63.75 33.17 75V37.51C94.92 26.26 190.46 48.76 252.17 37.51V75Z" fill="#353535" stroke="#1F1F1F" stroke-miterlimit="10"/>
<path d="M252.17 40.43C252.17 40.43 232.3 48.43 138.17 40.14C71.6599 34.25 38.4499 39.41 33.3199 40.31L252.17 40.43ZM253.05 71.39C253.05 71.39 232.55 80.05 138.38 71.72C71.8699 65.83 38.6599 70.99 33.5299 71.89" fill="#353535"/>
<path d="M253.05 71.39C253.05 71.39 232.55 80.05 138.38 71.72C71.8699 65.83 38.6599 70.99 33.5299 71.89M252.17 40.43C252.17 40.43 232.3 48.43 138.17 40.14C71.6599 34.25 38.4499 39.41 33.3199 40.31L252.17 40.43Z" stroke="#1F1F1F" stroke-width="0.75" stroke-miterlimit="10"/>
<path d="M247.47 80C246.83 76.53 244.38 70.88 239.64 67.89C235.72 65.43 232.3 65.97 232.29 64.74C232.29 63.19 236.65 63.67 236.65 63.67C231.91 60.96 225.12 64.28 224.15 62.73C223.58 61.79 227.31 60.49 227.31 60.49C221.54 60.28 214.72 63.25 211.99 65.95C218.88 63.64 228.58 64.95 232.99 68.78C231.116 67.7419 229.092 67.003 226.99 66.59C219.17 65.02 210.47 67.35 205.23 69.53C201.575 70.7966 198.076 72.474 194.8 74.53C190.9 76.8 183.69 78.91 178.8 76.84C178.8 76.84 186.45 89.59 195.86 85.16C196.55 84.77 197.21 84.38 197.86 83.99C201.534 81.8601 204.987 79.3713 208.17 76.56C212.467 73.5801 217.186 71.261 222.17 69.68C223.603 69.2549 225.11 69.1424 226.59 69.35C230.31 69.86 233.59 72.24 234.59 75.09C237.46 74.59 244.73 76.99 247.47 80.03" fill="#BE161D"/>
<path d="M84.53 34.28C83.74 30.02 77.86 29.28 74.83 31.28C76.0359 28.4766 78.2894 26.2554 81.11 25.09C79.6508 24.5492 78.1533 24.118 76.63 23.8C78.57 22.32 83.34 21.2 85.76 21.41C85.2883 21.2734 84.8069 21.1731 84.32 21.11L84.78 18.34C84.51 16.02 82.41 13.34 79.91 11.76C78.67 8.21003 79.91 1.76003 81.59 0.0300293C80.73 9.29003 93.85 15 96.4 21.88C95 16 88.89 12.17 86.05 8.61003C85.6963 7.35149 85.6079 6.03322 85.7904 4.73873C85.9729 3.44425 86.4222 2.20178 87.11 1.09003C86.61 7.32003 93.19 12.4 96.68 16C100.8 20.23 101.89 23.9 101.22 26.85C101.818 26.9948 102.342 27.3534 102.694 27.8582C103.046 28.3629 103.201 28.9789 103.13 29.59C103.816 29.3791 104.45 29.0273 104.993 28.5573C105.535 28.0872 105.974 27.5091 106.28 26.86C106.81 31.52 103.93 36.33 100.84 37.7C101.086 37.0581 101.173 36.3661 101.093 35.6834C101.012 35.0006 100.768 34.3475 100.38 33.78C99.06 32.07 95.17 31.93 93.85 31.98C93.85 31.98 95.54 29.64 94.93 28.41C94.19 26.88 86.55 27.31 83.1 28.41C84.7461 28.3804 86.3855 28.6272 87.95 29.14C87.39 29.92 85.89 33.23 86.87 34.27C87.7 35.16 88.87 33.84 89.02 33.67C88.91 33.99 87.76 37.33 88.55 38.17C89.34 39.01 91.22 38.5 91.22 38.5C90 41.37 85.5 43.22 82.4 43.12C83.8927 42.4414 85.0771 41.2285 85.72 39.72C84.5091 40.1183 83.2252 40.2446 81.96 40.09C82.96 39.71 85.06 37.2 84.53 34.28V34.28ZM95.45 25.48C95.1103 24.4414 94.5515 23.4878 93.8114 22.6838C93.0712 21.8799 92.167 21.2443 91.16 20.82C91.76 23.2 92.6 25.4 95.45 25.48Z" fill="#BE161D"/>
<path d="M68.17 16.82C68.68 15.02 65.17 11.82 63.86 11.19C66.357 11.0743 68.8542 11.4131 71.23 12.19C70.5957 11.1158 70.2003 9.91755 70.0709 8.67679C69.9415 7.43604 70.081 6.18196 70.48 5C72.97 11.53 82.56 12.87 84.78 18.3L84.32 21.07C80.53 20.58 74.94 21.71 72.12 24.84C73.6445 24.9957 75.1491 25.3074 76.61 25.77C72.34 26.41 66.46 30.17 64.7 31.98C65.22 29.54 65.97 27.49 65.44 25.98C64.69 23.88 62.19 22.92 57.14 23.81C60.63 20.52 67.64 18.63 68.14 16.81" fill="#BE161D"/>
<path d="M40.14 33.34L41.14 35.56C39.77 35.79 38.23 41.2 38.23 41.2C34.74 39.2 37.68 32.72 37.68 32.72L40.14 33.34Z" fill="#BE161D"/>
<path d="M32.52 32.4201C33.3768 31.7869 34.3111 31.2661 35.3 30.8701L36.89 32.2801L36.07 32.5301C36.07 32.5301 34.54 37.5301 35.16 39.6001L36.16 42.5001C36.16 42.5001 32.9001 41.8501 32.4001 40.6001C32.4001 40.6001 31.4 34.9701 32.52 32.4201" fill="#BE161D"/>
<path d="M30.68 34.54C30.68 34.54 30.89 40.96 31.55 41.54L33.97 42.54L34 44.75C34 44.75 29.68 43.38 29.32 41.75C28.96 40.12 28.72 36 28.72 36C29.2185 35.3215 29.9184 34.8176 30.72 34.56" fill="#BE161D"/>
<path d="M185.26 24.94C185.243 25.2274 185.165 25.5078 185.029 25.7619C184.894 26.0161 184.706 26.2382 184.477 26.4129C184.248 26.5875 183.984 26.7108 183.704 26.7741C183.423 26.8375 183.132 26.8395 182.85 26.78C183.062 26.9527 183.313 27.0719 183.581 27.1276C183.849 27.1833 184.126 27.1738 184.39 27.1C184.084 27.4458 183.689 27.7006 183.248 27.8364C182.807 27.9723 182.337 27.9839 181.89 27.87C181.479 27.7455 181.115 27.499 180.848 27.1633C180.58 26.8276 180.42 26.4184 180.39 25.99C180.192 26.2074 180.082 26.4909 180.082 26.785C180.082 27.0791 180.192 27.3627 180.39 27.58C180.105 27.4954 179.849 27.3308 179.654 27.1057C179.46 26.8807 179.333 26.6046 179.29 26.31C179.2 25.67 179.56 24.94 178.89 24.31C178.49 23.96 177.89 23.46 177.49 23.15C176.67 22.51 176.98 22.03 176.8 21.69C176.62 21.35 176.31 21.28 176.1 21.04C176.009 20.9276 175.953 20.791 175.939 20.647C175.924 20.503 175.953 20.3581 176.02 20.23C176.009 20.3661 176.048 20.5016 176.129 20.6117C176.209 20.7218 176.327 20.7993 176.46 20.83C176.77 20.93 177.02 20.83 177.28 21C177.54 21.17 177.45 21.66 177.67 21.84C177.89 22.02 178.38 21.79 178.81 22.13C179.24 22.47 180.22 23.29 180.64 23.64C180.759 23.7759 180.923 23.8647 181.102 23.8907C181.281 23.9166 181.463 23.878 181.616 23.7816C181.769 23.6853 181.883 23.5375 181.937 23.365C181.99 23.1924 181.981 23.0063 181.91 22.84C182.086 22.9526 182.234 23.1038 182.343 23.282C182.452 23.4603 182.52 23.661 182.54 23.869C182.56 24.077 182.533 24.2869 182.46 24.4828C182.387 24.6787 182.271 24.8556 182.12 25C182.72 25.14 183.8 24.87 183.8 24C183.803 23.7603 183.72 23.5275 183.566 23.3439C183.412 23.1604 183.197 23.0383 182.96 23C183.236 22.9562 183.518 22.9708 183.788 23.0427C184.058 23.1146 184.31 23.2423 184.528 23.4175C184.745 23.5928 184.924 23.8117 185.052 24.0601C185.18 24.3086 185.254 24.5811 185.27 24.86L185.26 24.94ZM172.35 18.24C172.43 17.95 171.84 17.44 171.63 17.35C172.034 17.318 172.44 17.3586 172.83 17.47C172.722 17.2991 172.652 17.1073 172.625 16.9073C172.597 16.7072 172.613 16.5036 172.67 16.31C173.1 17.36 174.67 17.53 175.05 18.4C174.988 18.1867 174.883 17.9882 174.742 17.8163C174.601 17.6445 174.427 17.5029 174.23 17.4C174.136 17.0815 174.107 16.7475 174.145 16.4177C174.183 16.0879 174.287 15.769 174.45 15.48C174.34 17 176.5 17.9 177 19C176.73 18.06 175.73 17.46 175.25 16.9C175.187 16.6982 175.166 16.4853 175.19 16.2751C175.215 16.065 175.283 15.8622 175.39 15.68C175.33 16.68 176.39 17.48 177.01 18.04C177.276 18.2411 177.488 18.5056 177.626 18.8096C177.764 19.1135 177.824 19.4471 177.8 19.78C177.899 19.8014 177.986 19.8577 178.047 19.9385C178.108 20.0193 178.137 20.1192 178.13 20.22C178.238 20.1802 178.338 20.1189 178.422 20.0399C178.506 19.9608 178.573 19.8657 178.62 19.76C178.668 20.1051 178.615 20.4566 178.467 20.7724C178.32 21.0881 178.085 21.3547 177.79 21.54C177.828 21.4358 177.84 21.3236 177.825 21.2136C177.809 21.1037 177.766 20.9993 177.7 20.91C177.48 20.64 176.85 20.63 176.63 20.65C176.63 20.65 176.9 20.26 176.79 20.06C176.68 19.86 175.43 19.93 174.87 20.13C175.136 20.118 175.403 20.1484 175.66 20.22C175.58 20.35 175.35 20.9 175.51 21.06C175.67 21.22 175.86 20.95 175.86 20.95C175.86 20.95 175.67 21.55 175.8 21.68C175.93 21.81 176.24 21.68 176.24 21.68C176.092 21.9209 175.884 22.1199 175.638 22.2582C175.391 22.3965 175.113 22.4694 174.83 22.47C175.071 22.3595 175.258 22.1582 175.35 21.91C175.158 21.9774 174.953 22.0013 174.75 21.98C174.899 21.8762 175.015 21.7308 175.082 21.562C175.15 21.3931 175.166 21.2082 175.13 21.03C174.98 20.34 174.03 20.25 173.55 20.59C173.739 20.138 174.098 19.7787 174.55 19.59C174.312 19.509 174.068 19.4487 173.82 19.41C174.258 19.1268 174.768 18.9742 175.29 18.97C174.9 18.8923 174.496 18.9089 174.114 19.0185C173.731 19.1281 173.38 19.3274 173.09 19.6C173.34 19.619 173.588 19.6625 173.83 19.73C173.115 19.9175 172.461 20.286 171.93 20.8C172.036 20.4779 172.067 20.1358 172.02 19.8C171.88 19.47 171.47 19.32 170.66 19.49C171.21 18.94 172.34 18.6 172.41 18.3L172.35 18.24ZM177.14 19.76L177.06 19.51C176.99 19.3174 176.88 19.142 176.737 18.9954C176.594 18.8488 176.421 18.7345 176.23 18.66L175.88 18.53L175.98 18.88C176.07 19.19 176.23 19.76 176.88 19.76H177.14ZM152.51 20.56C152.507 21.121 152.39 21.6756 152.167 22.1902C151.943 22.7049 151.618 23.1692 151.211 23.555C150.804 23.9408 150.322 24.2402 149.796 24.4353C149.27 24.6303 148.71 24.717 148.15 24.69C147.61 24.69 147.076 24.5837 146.577 24.3772C146.079 24.1706 145.625 23.8679 145.244 23.4862C144.862 23.1046 144.559 22.6515 144.353 22.1528C144.146 21.6542 144.04 21.1197 144.04 20.58C144.04 20.0403 144.146 19.5058 144.353 19.0072C144.559 18.5085 144.862 18.0554 145.244 17.6738C145.625 17.2922 146.079 16.9894 146.577 16.7829C147.076 16.5763 147.61 16.47 148.15 16.47C148.709 16.4389 149.269 16.5213 149.795 16.7121C150.321 16.903 150.804 17.1983 151.213 17.5804C151.622 17.9625 151.95 18.4235 152.176 18.9356C152.402 19.4476 152.523 20.0002 152.53 20.56H152.51ZM150.24 20.56C150.261 20.2652 150.217 19.9693 150.111 19.6936C150.004 19.4179 149.838 19.1693 149.623 18.9656C149.409 18.7619 149.153 18.6082 148.872 18.5156C148.591 18.423 148.293 18.3938 148 18.43C147.72 18.4286 147.442 18.4862 147.185 18.5989C146.929 18.7117 146.699 18.8772 146.51 19.0846C146.321 19.2921 146.179 19.5369 146.091 19.8031C146.003 20.0693 145.972 20.3511 146 20.63C145.978 20.9058 146.013 21.1832 146.104 21.4446C146.194 21.706 146.338 21.9458 146.526 22.1488C146.714 22.3518 146.942 22.5136 147.196 22.624C147.449 22.7344 147.723 22.7909 148 22.79C148.285 22.7987 148.569 22.7462 148.833 22.636C149.096 22.5258 149.333 22.3605 149.527 22.1511C149.722 21.9417 149.869 21.6932 149.959 21.4222C150.049 21.1512 150.08 20.864 150.05 20.58L150.24 20.56ZM111.65 20.58C111.664 21.4832 111.371 22.3643 110.82 23.08C110.577 23.3848 110.287 23.6483 109.96 23.86C109.171 24.391 108.229 24.6476 107.28 24.59H103.11L103.29 24.48L104.04 24.04C104.27 23.9 104.37 23.76 104.37 23.27V18.67C104.37 18.16 104.23 18.02 104.03 17.88C103.755 17.687 103.522 17.4405 103.345 17.1552C103.168 16.87 103.051 16.5518 103 16.22V16.11L103.1 16.17C103.323 16.3086 103.566 16.4131 103.82 16.48C104.584 16.5967 105.358 16.6369 106.13 16.6H107.73C108.425 16.594 109.111 16.7552 109.73 17.07C110.363 17.4036 110.891 17.9066 111.255 18.5229C111.619 19.1392 111.804 19.8445 111.79 20.56L111.65 20.58ZM109.47 20.56C109.47 19.26 108.8 18.51 107.63 18.51H106.73V22.61H107.63C108.8 22.61 109.47 21.86 109.47 20.56V20.56ZM164.79 19.44L164.47 19.36C163.71 19.18 163.22 19.04 163.22 18.72C163.214 18.6248 163.247 18.5313 163.31 18.46C163.539 18.2956 163.82 18.2209 164.1 18.25H164.35C165.194 18.3594 165.998 18.6755 166.69 19.17L166.56 16.81L166.41 16.76L166.05 16.67C165.568 16.5629 165.081 16.4828 164.59 16.43H164.13C162.36 16.43 161.32 17.27 161.21 18.8C161.179 19.179 161.256 19.5591 161.433 19.8956C161.611 20.2321 161.88 20.5111 162.21 20.7C162.844 21.0431 163.515 21.3115 164.21 21.5H164.35C164.74 21.62 165.19 21.86 165.12 22.32C165.12 22.57 165 22.83 164.27 22.83H163.92C163.272 22.7154 162.669 22.4209 162.18 21.98L162 22L161.6 21.7L161.18 21.38L161.35 24.38L161.5 24.43L161.86 24.52C162.389 24.628 162.923 24.7081 163.46 24.76H163.9C165.84 24.76 167.12 23.76 167.16 22.3C167.2 20.84 166.37 19.92 164.71 19.5L164.79 19.44ZM141.51 22.67H139.71V21.47H141.4C141.602 21.4508 141.806 21.4712 142 21.53C142.107 21.5892 142.199 21.6712 142.27 21.77L142.35 21.89V19.34H142.28L142.08 19.45C141.919 19.5009 141.748 19.5179 141.58 19.5H139.71V18.5H141.58C141.732 18.4777 141.887 18.4875 142.035 18.5288C142.184 18.5702 142.321 18.6421 142.44 18.74L142.91 19.09L142.66 16.57H136.28L136.45 16.67L137.15 17.11C137.39 17.27 137.49 17.38 137.49 17.9V23.22C137.49 23.74 137.41 23.83 137.16 23.99L136.41 24.43L136.23 24.54H142.84L143.44 21.88C143.44 21.88 142.9 22.26 142.75 22.35C142.377 22.571 141.94 22.6591 141.51 22.6V22.67ZM129.1 16.6H124.59L124.76 16.7L125.46 17.14C125.7 17.3 125.79 17.41 125.79 17.93V19.86L122.45 16.6H117.21C117.093 16.6049 116.98 16.6393 116.88 16.7V16.7V16.75L117.06 17.01C117.126 17.1144 117.157 17.2368 117.15 17.36V21.43C117.15 22.28 116.76 22.72 115.95 22.72C115.14 22.72 114.71 22.27 114.71 21.39V17.4C114.703 17.2768 114.734 17.1544 114.8 17.05C114.859 16.96 114.922 16.8732 114.99 16.79V16.74C114.89 16.6793 114.777 16.6449 114.66 16.64H111.31L111.48 16.74L112.18 17.18C112.42 17.34 112.51 17.45 112.51 17.97V21.26C112.487 21.8308 112.571 22.4008 112.76 22.94C112.896 23.2382 113.09 23.5066 113.33 23.73C113.678 24.0689 114.092 24.3325 114.546 24.5046C115 24.6766 115.485 24.7533 115.97 24.73C116.62 24.7823 117.271 24.6364 117.837 24.3116C118.403 23.9867 118.857 23.4981 119.14 22.91C119.339 22.4048 119.424 21.8619 119.39 21.32V17.94C119.39 17.42 119.48 17.31 119.72 17.15L120.2 16.85L120.63 17.15C120.87 17.32 120.98 17.49 120.98 18V23.26C120.98 23.77 120.88 23.88 120.65 24.03L119.9 24.47L119.71 24.58H124.25L124.06 24.47L123.31 24.03C123.09 23.88 122.99 23.77 122.99 23.26V20.09L127.83 24.83V17.94C127.83 17.43 127.92 17.32 128.16 17.15C128.4 16.98 128.92 16.71 128.93 16.71L129.1 16.6ZM161.42 16.6H156.9L157.07 16.7L157.77 17.14C158.01 17.3 158.1 17.41 158.1 17.93V19.86L154.77 16.6H152.12L152.27 16.7L152.92 17.14C153.15 17.31 153.26 17.48 153.26 17.99V23.25C153.26 23.76 153.17 23.87 152.93 24.02L152.18 24.46L152 24.57H156.53L156.35 24.46L155.6 24.02C155.37 23.87 155.27 23.76 155.27 23.25V20.09L160.12 24.83V17.94C160.12 17.43 160.2 17.32 160.45 17.15C160.7 16.98 161.21 16.71 161.21 16.71L161.42 16.6ZM136.23 24.1L136.05 23.83C135.99 23.74 135.95 23.66 135.95 23.33V21.19C135.95 20.87 135.95 20.81 136.04 20.71C136.13 20.61 136.23 20.44 136.23 20.44V20.39H136.17C136.07 20.3389 135.962 20.3051 135.85 20.29H132.45L132.62 20.39L133.35 20.84C133.57 20.98 133.68 21.13 133.68 21.61V22.78C133.411 22.8591 133.131 22.8962 132.85 22.89C131.49 22.89 130.79 22.16 130.79 20.7C130.744 20.3993 130.77 20.092 130.865 19.8029C130.959 19.5139 131.121 19.2512 131.336 19.0361C131.551 18.821 131.814 18.6595 132.103 18.5646C132.392 18.4698 132.699 18.4442 133 18.49C134.009 18.4901 134.985 18.844 135.76 19.49V19.43L135.51 17.12V16.95H135.34H135.18C134.717 16.8304 134.246 16.7436 133.77 16.69C133.538 16.6558 133.304 16.6391 133.07 16.64H132.94C131.847 16.64 130.799 17.0741 130.027 17.8467C129.254 18.6194 128.82 19.6673 128.82 20.76C128.82 21.8527 129.254 22.9006 130.027 23.6733C130.799 24.4459 131.847 24.88 132.94 24.88C133.551 24.8666 134.16 24.8031 134.76 24.69L135 24.63V24.63L135.91 24.39L136.3 24.27L136.23 24.1ZM195.59 20.56C195.601 21.4643 195.305 22.3456 194.75 23.06C194.509 23.3624 194.222 23.6255 193.9 23.84C193.108 24.3725 192.163 24.6291 191.21 24.57H187.04L187.22 24.46L188 24C188.24 23.86 188.33 23.72 188.33 23.23V18.63C188.33 18.12 188.19 17.98 187.99 17.84C187.702 17.656 187.454 17.4145 187.263 17.1306C187.072 16.8467 186.942 16.5265 186.88 16.19V16.08L186.97 16.14C187.199 16.2752 187.444 16.3794 187.7 16.45C188.464 16.5667 189.238 16.6069 190.01 16.57H191.61C192.305 16.5651 192.99 16.7263 193.61 17.04C194.243 17.3736 194.771 17.8766 195.135 18.4929C195.499 19.1092 195.684 19.8145 195.67 20.53L195.59 20.56ZM193.35 20.53C193.35 19.23 192.67 18.48 191.5 18.48H190.6V22.58H191.5C192.67 22.58 193.35 21.83 193.35 20.53V20.53ZM239.62 19.41L239.3 19.33C238.54 19.15 238.04 19.01 238.04 18.69C238.039 18.6422 238.047 18.5946 238.064 18.5499C238.081 18.5053 238.107 18.4645 238.14 18.43C238.364 18.2636 238.643 18.1886 238.92 18.22H239.18C240.023 18.331 240.827 18.6469 241.52 19.14L241.39 16.78L241.23 16.73L240.87 16.64C240.388 16.5329 239.901 16.4528 239.41 16.4C239.257 16.3903 239.103 16.3903 238.95 16.4C237.17 16.4 236.14 17.24 236.02 18.77C235.999 19.1475 236.081 19.5236 236.257 19.8582C236.433 20.1928 236.697 20.4734 237.02 20.67C237.655 21.0109 238.325 21.2792 239.02 21.47H239.16C239.55 21.59 239.99 21.83 239.93 22.29C239.93 22.54 239.8 22.8 239.08 22.8H238.73C238.055 22.7162 237.42 22.4383 236.9 22L236.84 21.95L236.43 21.65L236.02 21.33L236.18 24.33L236.34 24.38L236.7 24.47C237.229 24.578 237.763 24.6581 238.3 24.71H238.74C240.68 24.71 241.96 23.71 241.99 22.25C242.02 20.79 241.21 19.87 239.55 19.45L239.62 19.41ZM227.24 20.56C227.238 21.1214 227.122 21.6766 226.899 22.192C226.677 22.7073 226.352 23.1721 225.944 23.5582C225.536 23.9443 225.055 24.2437 224.528 24.4382C224.001 24.6328 223.441 24.7184 222.88 24.69C222.324 24.7175 221.768 24.6316 221.246 24.4377C220.724 24.2438 220.247 23.9459 219.844 23.562C219.44 23.1781 219.119 22.7163 218.9 22.2045C218.68 21.6928 218.567 21.1418 218.567 20.585C218.567 20.0282 218.68 19.4772 218.9 18.9655C219.119 18.4537 219.44 17.9919 219.844 17.608C220.247 17.2241 220.724 16.9262 221.246 16.7323C221.768 16.5384 222.324 16.4526 222.88 16.48C223.439 16.4475 223.998 16.5286 224.524 16.7183C225.05 16.908 225.533 17.2024 225.942 17.5837C226.352 17.965 226.679 18.4254 226.906 18.9369C227.132 19.4485 227.253 20.0006 227.26 20.56H227.24ZM224.97 20.56C224.99 20.2763 224.95 19.9915 224.852 19.7247C224.753 19.4578 224.599 19.215 224.399 19.0125C224.2 18.81 223.959 18.6524 223.694 18.5502C223.428 18.448 223.144 18.4036 222.86 18.42C222.58 18.4186 222.302 18.4762 222.045 18.5889C221.789 18.7017 221.559 18.8672 221.37 19.0746C221.181 19.2821 221.039 19.5269 220.951 19.7931C220.863 20.0593 220.832 20.3411 220.86 20.62C220.837 20.9009 220.874 21.1835 220.968 21.4491C221.062 21.7147 221.212 21.9575 221.406 22.1614C221.601 22.3654 221.836 22.5259 222.097 22.6325C222.358 22.7391 222.638 22.7894 222.92 22.78C223.202 22.7817 223.482 22.7237 223.74 22.6097C223.998 22.4957 224.229 22.3284 224.418 22.1187C224.607 21.909 224.749 21.6617 224.836 21.3931C224.922 21.1244 224.951 20.8405 224.92 20.56H224.97ZM210.85 24.03L211.52 24.56H207.35C207.35 24.56 207.71 24.22 207.87 24.05C207.945 23.9863 207.995 23.899 208.013 23.8026C208.032 23.7062 208.016 23.6065 207.97 23.52L207.84 23.16H205C205 23.32 204.9 23.45 204.87 23.52C204.75 23.8 204.78 23.88 204.94 24.04C205.1 24.2 205.55 24.56 205.55 24.56H201.18L199.18 22.14C199.041 21.9208 198.857 21.7334 198.64 21.59C198.6 21.584 198.56 21.584 198.52 21.59V23.29C198.52 23.79 198.61 23.88 198.85 24.06C199.173 24.2608 199.507 24.4444 199.85 24.61H195.18C195.18 24.61 195.9 24.21 196.12 24.06C196.34 23.91 196.45 23.8 196.45 23.29V18C196.45 17.51 196.34 17.35 196.11 17.21L195.41 16.77L195.25 16.67H199C199.482 16.6468 199.964 16.6974 200.43 16.82C200.883 16.9451 201.281 17.2154 201.565 17.5895C201.849 17.9636 202.002 18.4205 202 18.89C202.004 19.3465 201.868 19.7933 201.61 20.17C201.42 20.4482 201.171 20.6806 200.88 20.85C201.71 21.96 202.37 22.79 202.77 23.24L205.19 17.43C205.195 17.3935 205.195 17.3565 205.19 17.32C205.19 17.32 205.19 17.23 205.07 17.12L204.51 16.61H207.65C207.65 16.61 210.27 23.24 210.28 23.28C210.327 23.3882 210.384 23.4919 210.45 23.59C210.563 23.7755 210.717 23.9329 210.9 24.05L210.85 24.03ZM199.81 18.88C199.81 18.47 199.54 18.2 198.81 18.2H198.55V20.06H198.81C199.32 20.06 199.81 19.95 199.81 18.88ZM207.22 21.29L206.5 19.29L205.72 21.29H207.22ZM236.28 16.61H231.76L231.93 16.71L232.63 17.15C232.87 17.31 232.96 17.42 232.96 17.94V19.87L229.63 16.61H227L227.16 16.71C227.16 16.71 227.57 16.98 227.8 17.15C228.03 17.32 228.15 17.49 228.15 18V23.26C228.15 23.77 228.05 23.88 227.82 24.03L227.07 24.47L226.89 24.58H231.42L231.23 24.47L230.48 24.03C230.26 23.88 230.16 23.77 230.16 23.26V20.09L235 24.83V17.94C235 17.43 235.09 17.32 235.33 17.15C235.57 16.98 236.1 16.71 236.1 16.71L236.28 16.61ZM218 23.77C217.94 23.68 217.91 23.6 217.91 23.27V21.12C217.91 20.8 217.91 20.73 218 20.64C218.055 20.5467 218.115 20.4566 218.18 20.37V20.32H218.12C218.022 20.2644 217.913 20.2304 217.8 20.22H214.4L214.57 20.32L215.29 20.77C215.51 20.91 215.62 21.06 215.62 21.54V22.71C215.354 22.7897 215.077 22.8268 214.8 22.82C213.43 22.82 212.74 22.08 212.74 20.63C212.703 20.3436 212.731 20.0527 212.821 19.7784C212.911 19.5041 213.061 19.2534 213.261 19.0445C213.46 18.8357 213.703 18.6739 213.973 18.571C214.243 18.4682 214.532 18.4268 214.82 18.45C215.832 18.4495 216.812 18.8033 217.59 19.45V19.39L217.34 17V16.83H217.17H217.01C216.546 16.7122 216.075 16.6221 215.6 16.56C215.37 16.543 215.14 16.543 214.91 16.56H214.77C214.229 16.56 213.693 16.6666 213.193 16.8736C212.693 17.0807 212.239 17.3842 211.857 17.7667C211.474 18.1493 211.171 18.6035 210.964 19.1034C210.757 19.6032 210.65 20.139 210.65 20.68C210.65 21.2211 210.757 21.7568 210.964 22.2567C211.171 22.7565 211.474 23.2107 211.857 23.5933C212.239 23.9759 212.693 24.2793 213.193 24.4864C213.693 24.6934 214.229 24.8 214.77 24.8C215.378 24.7861 215.983 24.7226 216.58 24.61L216.82 24.55L217.74 24.31L218.13 24.19L218.08 24.12C218.08 24.12 217.96 23.96 217.89 23.85L218 23.77ZM182.54 19.15C180.82 19.24 179.35 20.69 178.59 21.72C178.738 21.7694 178.877 21.8438 179 21.94L179.64 22.46C179.996 21.6811 180.457 20.9544 181.01 20.3C181.293 19.9682 181.687 19.7494 182.118 19.6833C182.549 19.6172 182.99 19.7083 183.36 19.94C184.068 19.5028 184.909 19.3359 185.73 19.47C185.132 18.8352 184.311 18.4555 183.44 18.41C182.63 18.41 182.17 18.8 182.05 18.62C181.93 18.44 182.6 18.06 182.6 18.06C181.65 18.06 180.95 19.22 180.66 19.06C180.37 18.9 180.92 18.44 180.92 18.44C180.086 18.9536 179.462 19.7478 179.16 20.68C179.571 20.1852 180.089 19.789 180.674 19.5208C181.259 19.2525 181.897 19.119 182.54 19.13V19.15ZM177.32 23.69C177.093 24.1323 176.768 24.5166 176.369 24.8131C175.971 25.1097 175.509 25.3105 175.02 25.4C173.28 25.4 172.41 22.95 174.35 20.94C174.264 20.9303 174.176 20.9303 174.09 20.94C173.941 20.9386 173.795 20.9803 173.67 21.06L172.81 21.79L173.05 20.6V20.48C172.684 20.6592 172.347 20.8917 172.05 21.17L171.28 22.01L171.36 20.82V20.56C171.409 20.4016 171.429 20.2356 171.42 20.07V20.01C171.03 20.297 170.701 20.6588 170.452 21.0743C170.203 21.4897 170.039 21.9506 169.97 22.43C170.063 22.2937 170.186 22.1808 170.33 22.1C170.43 22.1 170.53 22.1 170.43 22.43C170.147 23.1842 170.078 24.0021 170.232 24.7929C170.386 25.5837 170.755 26.3165 171.3 26.91C171.3 26.91 171.1 26.38 171.22 26.22C171.34 26.06 171.36 26.14 171.47 26.28C171.548 26.3877 171.631 26.4912 171.72 26.59V26.59C172.053 26.9743 172.467 27.2803 172.932 27.4861C173.397 27.6918 173.902 27.7922 174.41 27.78C175.317 27.7555 176.197 27.4672 176.943 26.9504C177.689 26.4336 178.268 25.7107 178.61 24.87C178.585 24.8266 178.551 24.7891 178.51 24.76C178.17 24.45 177.66 24.03 177.28 23.76L177.32 23.69ZM172.21 17C172.179 16.7452 172.2 16.4868 172.27 16.24L172.61 15.24L173.03 16.24C173.181 16.54 173.422 16.7849 173.72 16.94C173.69 16.462 173.769 15.9834 173.95 15.54C173.932 15.3731 173.948 15.2043 173.998 15.0439C174.047 14.8835 174.128 14.7347 174.237 14.6066C174.345 14.4785 174.478 14.3738 174.629 14.2987C174.779 14.2237 174.942 14.1799 175.11 14.17C176.22 14.17 176.51 15.51 176 16.47C176.266 16.8385 176.575 17.1742 176.92 17.47L177.24 17.76L177.32 17.85C177.812 17.1969 178.103 16.4154 178.16 15.6C178.17 15.2223 178.102 14.8465 177.962 14.4957C177.821 14.1449 177.611 13.8264 177.343 13.5596C177.076 13.2929 176.756 13.0835 176.405 12.9443C176.054 12.8051 175.678 12.739 175.3 12.75C174.814 12.6938 174.322 12.7492 173.861 12.9121C173.4 13.075 172.983 13.3411 172.64 13.69C172.343 13.9881 172.118 14.3505 171.982 14.7492C171.847 15.148 171.805 15.5725 171.86 15.99C171.887 16.3637 172.008 16.7246 172.21 17.04" fill="#BE161D"/>
<path d="M91.16 20.82C92.1671 21.2442 93.0713 21.8798 93.8114 22.6838C94.5516 23.4878 95.1104 24.4414 95.45 25.48C92.6 25.4 91.76 23.2 91.16 20.82Z" fill="black"/>
</g>
<defs>
<clipPath id="clip0_121_4235">
<rect width="587.44" height="98.96" fill="white"/>
</clipPath>
</defs>
</svg>
