<svg width="320" height="80" viewBox="0 0 320 80" fill="none" xmlns="http://www.w3.org/2000/svg">
<g clip-path="url(#clip0_121_4488)">
<path d="M0.630005 3.13V76.39C1.10832 75.0849 1.81612 73.8759 2.72001 72.82V6.69C1.81431 5.63912 1.10624 4.43302 0.630005 3.13Z" fill="#1F1F1F"/>
<path d="M318.72 3.13V76.39C318.236 75.0853 317.525 73.8766 316.62 72.82V6.69C317.527 5.63849 318.239 4.43272 318.72 3.13Z" fill="#1F1F1F"/>
<path d="M316.61 9.44H2.72003V70.08H316.61V9.44Z" fill="#353535"/>
<path d="M316.61 9.44H2.72003V70.08H316.61V9.44Z" stroke="#1F1F1F" stroke-width="1.25" stroke-miterlimit="10"/>
<path d="M0.630005 3.13V76.39C1.10832 75.0849 1.81612 73.8759 2.72001 72.82V63.0832V6.69C1.81431 5.63912 1.10624 4.43302 0.630005 3.13Z" stroke="#1F1F1F" stroke-width="1.25" stroke-miterlimit="10"/>
<path d="M2.72003 17.32C2.72003 17.32 3.79003 7 11.12 7H33.12C33.12 7 40.29 9.45 53.62 9.45M2.72003 62.19C2.72003 62.19 3.79003 72.52 11.12 72.52H33.12C33.12 72.52 40.29 70.08 53.62 70.08L2.72003 62.19Z" stroke="#1F1F1F" stroke-width="1.25" stroke-miterlimit="10"/>
<path d="M318.72 3.13V76.39C318.236 75.0853 317.525 73.8766 316.62 72.82V6.69C317.527 5.6385 318.239 4.43272 318.72 3.13V3.13Z" stroke="#1F1F1F" stroke-width="1.25" stroke-miterlimit="10"/>
<path d="M316.62 17.32C316.62 17.32 315.55 7 308.22 7H286.22C286.22 7 279.05 9.45 265.72 9.45M316.62 62.19C316.62 62.19 315.55 72.52 308.22 72.52H286.22C286.22 72.52 279.05 70.08 265.72 70.08L316.62 62.19Z" stroke="#1F1F1F" stroke-width="1.25" stroke-miterlimit="10"/>
<path d="M294.72 9.44C289.046 10.5533 283.29 11.1955 277.51 11.36H41.83C36.0502 11.1955 30.2939 10.5533 24.62 9.44M24.62 70.08C30.2932 68.9618 36.0499 68.3196 41.83 68.16H277.51C283.29 68.3196 289.047 68.9618 294.72 70.08H24.62Z" stroke="#1F1F1F" stroke-width="0.75" stroke-miterlimit="10"/>
</g>
<defs>
<clipPath id="clip0_121_4488">
<rect width="319.34" height="79.51" fill="white"/>
</clipPath>
</defs>
</svg>
